# xmcd
#
# Track frame offsets:
#	150
#	15127
#	39820
#	58050
#	73074
#	90735
#	108276
#	122468
#	140336
#	154876
#	170465
#	187827
#	202947
#	217389
#	230629
#	245387
#	259802
#
# Disc length: 3671 seconds
#
# Revision: 1
# Processed by: cddbd v1.5.2PL0 Copyright (c) Steve Scherf et al.
# Submitted via: audiograbber 1.83.01
#
DISCID=e30e5511
DTITLE=Various Artist - Hc139
DYEAR=2007
DGENRE=
TTITLE0=More Than A Memory - Brooks, Garth
TTITLE1=Everybody - Urban, Keith
TTITLE2=Tangled Up - Currington, Billy
TTITLE3=Our Song - Swift, Taylor
TTITLE4=The Strong One - Black, Clint
TTITLE5=How 'Bout Them Cowgirls - Strait, George
TTITLE6=Things That Never Cross A Man's Mind - Pickler, Kellie
TTITLE7=A Little More You - Little Big Town
TTITLE8=This Is My Life - Vassar, Phil
TTITLE9=Break - Vautour, J.r.
TTITLE10=Sinners Like Me - Church, Eric
TTITLE11=Drinkin' Till She's Pretty - Dry County
TTITLE12=Blue Collar Man - Steele, Duane
TTITLE13=What Kinda Gone - Cagle, Chris
TTITLE14=Heaven Heartache And The Power Of Love - Yearwood, Trisha
TTITLE15=Best Days - White, Matt
TTITLE16=God Blessed Texas - Little Texas
EXTD=
EXTT0=
EXTT1=
EXTT2=
EXTT3=
EXTT4=
EXTT5=
EXTT6=
EXTT7=
EXTT8=
EXTT9=
EXTT10=
EXTT11=
EXTT12=
EXTT13=
EXTT14=
EXTT15=
EXTT16=
PLAYORDER=
